<svg width="14" height="14" viewBox="0 0 14 14" fill="none" xmlns="http://www.w3.org/2000/svg">
<path fill-rule="evenodd" clip-rule="evenodd" d="M13.8076 5.89581L7.78213 0.291112C7.33844 -0.0970375 6.66318 -0.0970375 6.21949 0.291112L0.192425 5.89581C-0.0472328 6.10397 -0.0650452 6.45925 0.150323 6.69089C0.365691 6.92253 0.734893 6.93974 0.972932 6.73158L7 1.12689L13.0271 6.73158C13.2667 6.93974 13.6343 6.92253 13.8497 6.69089C14.065 6.45925 14.0472 6.10397 13.8076 5.89581ZM12.1977 7.97461C11.8754 7.97461 11.6147 8.22659 11.6147 8.53805V12.8734H9.2991V9.11715C9.2991 8.49423 8.77768 7.99026 8.1332 7.99026H5.86617C5.22168 7.99026 4.70026 8.49423 4.70026 9.11715V12.8734H2.38465V8.53805C2.38465 8.22659 2.12394 7.97461 1.8017 7.97461C1.47946 7.97461 1.21875 8.22659 1.21875 8.53805V12.8734C1.21875 13.4964 1.74017 14.0003 2.38465 14.0003H11.6147C12.2592 14.0003 12.7806 13.4964 12.7806 12.8734V8.53805C12.7806 8.22659 12.5199 7.97461 12.1977 7.97461ZM8.13324 9.11719H5.86621V12.8735H8.13324V9.11719Z" fill="#9099A3"/>
</svg>
